<svg width="21" height="22" viewBox="0 0 21 22" fill="none" xmlns="http://www.w3.org/2000/svg">
<path fill-rule="evenodd" clip-rule="evenodd" d="M4.20894 19.8C4.20894 18.59 5.14309 17.6 6.29766 17.6C7.45223 17.6 8.39688 18.59 8.39688 19.8C8.39688 21.01 7.45223 22 6.29766 22C5.14309 22 4.20894 21.01 4.20894 19.8ZM14.705 19.8C14.705 18.59 15.6392 17.6 16.7938 17.6C17.9483 17.6 18.893 18.59 18.893 19.8C18.893 21.01 17.9483 22 16.7938 22C15.6392 22 14.705 21.01 14.705 19.8Z" fill="black"/>
<path fill-rule="evenodd" clip-rule="evenodd" d="M15.2718 12.1C16.059 12.1 16.7518 11.649 17.1086 10.967L20.8663 3.828C21.2546 3.102 20.7508 2.2 19.9531 2.2H4.41886L3.43223 0H0V2.2H2.09922L5.87782 10.549L4.46084 13.233C3.69463 14.707 4.70225 16.5 6.29766 16.5H18.893V14.3H6.29766L7.45223 12.1H15.2718ZM18.1688 4.4H5.41599L7.90356 9.9H15.2718L18.1688 4.4Z" fill="black"/>
</svg>
